<?xml version="1.0" standalone="no"?>
<!DOCTYPE svg PUBLIC "-//W3C//DTD SVG 20010904//EN"
 "http://www.w3.org/TR/2001/REC-SVG-20010904/DTD/svg10.dtd">
<svg version="1.0" xmlns="http://www.w3.org/2000/svg"
 width="600.000000pt" height="600.000000pt" viewBox="0 0 600.000000 600.000000"
 preserveAspectRatio="xMidYMid meet">
<metadata>
Created by potrace 1.11, written by Peter Selinger 2001-2013
</metadata>
<g transform="translate(0.000000,600.000000) scale(0.100000,-0.100000)"
fill="#000000" stroke="none">
<path d="M2705 5868 c-151 -16 -352 -50 -435 -74 -30 -8 -68 -19 -85 -24 -102
-28 -333 -117 -428 -165 -593 -299 -1024 -731 -1312 -1315 -223 -451 -323
-1003 -270 -1490 20 -181 29 -239 67 -400 90 -387 286 -785 540 -1101 210
-260 493 -505 769 -666 81 -46 317 -168 344 -176 11 -3 63 -21 115 -40 52 -19
102 -37 110 -39 48 -17 194 -57 245 -67 33 -7 76 -16 95 -21 129 -32 273 -44
530 -44 278 1 353 9 613 64 250 54 573 181 790 312 44 26 82 48 84 48 17 0
228 154 328 240 228 195 439 438 578 666 69 113 207 386 207 409 0 3 9 24 19
48 46 99 125 375 150 522 44 264 54 461 35 705 -8 102 -18 210 -23 240 -15 94
-29 166 -41 212 -6 23 -16 59 -21 78 -13 53 -59 202 -69 225 -4 11 -25 63 -46
115 -97 240 -250 501 -415 706 -86 107 -293 315 -409 409 -180 148 -502 343
-690 419 -25 10 -54 22 -65 27 -37 16 -266 90 -318 104 -108 27 -244 50 -456
75 -100 12 -422 11 -536 -2z m660 -627 c110 -11 216 -27 273 -41 23 -5 63 -15
90 -21 139 -33 334 -104 442 -162 154 -83 364 -243 504 -384 335 -337 445
-784 357 -1438 -44 -321 -190 -658 -406 -936 -71 -91 -255 -273 -356 -351
-156 -122 -432 -282 -596 -347 -28 -11 -70 -29 -94 -40 -62 -27 -210 -79 -299
-103 -41 -11 -115 -32 -165 -45 -107 -30 -128 -34 -405 -84 -30 -5 -95 -14
-145 -19 -49 -5 -133 -14 -185 -20 -139 -16 -470 -29 -747 -29 l-241 -1 -26
31 c-14 17 -26 39 -26 50 0 10 31 79 68 152 81 155 185 354 235 448 44 83 50
137 87 709 9 137 26 339 50 600 6 63 15 183 20 265 5 83 16 238 24 345 26 337
38 522 33 527 -3 2 -27 0 -53 -5 -54 -11 -233 -47 -307 -62 -27 -5 -86 -10
-132 -10 -95 0 -105 7 -105 74 0 38 12 53 150 181 36 32 101 93 146 135 437
410 492 456 604 506 84 39 218 67 390 83 117 11 692 6 815 -8z"/>
<path d="M2984 4435 c-45 -20 -51 -32 -57 -120 -3 -44 -13 -147 -21 -230 -9
-82 -23 -231 -31 -330 -8 -99 -19 -225 -25 -280 -5 -55 -14 -163 -20 -240 -6
-77 -15 -187 -20 -245 -12 -129 -28 -323 -40 -490 -12 -166 -28 -354 -36 -411
-5 -44 -4 -47 22 -53 31 -8 187 9 289 31 421 91 708 396 794 843 6 30 18 91
27 134 12 58 16 137 17 290 1 212 -1 233 -44 401 -18 69 -81 227 -116 288 -18
33 -33 61 -33 64 0 3 -20 34 -45 68 -87 122 -231 230 -350 263 -22 6 -59 15
-81 21 -56 15 -192 12 -230 -4z"/>
</g>
</svg>
